<svg width="76" height="61" viewBox="0 0 76 61" fill="none" xmlns="http://www.w3.org/2000/svg">
<path d="M71.2098 15.6266C70.7131 11.8213 67.4525 8.87273 63.5139 8.87273H42.4412V1.10909C42.4412 0.496577 41.9448 0 41.3321 0H1.10909C0.496577 0 0 0.496577 0 1.10909V49.9091C0 50.5216 0.496577 51.0182 1.10909 51.0182H4.49197C5.05021 56.6148 9.78603 61 15.5273 61C21.2685 61 26.0043 56.6148 26.5626 51.0182H44.715C45.2732 56.6148 50.0091 61 55.7503 61C61.4915 61 66.2274 56.6148 66.7856 51.0182H74.6048C75.2175 51.0182 75.7139 50.5216 75.7139 49.9091V21.0727C75.7139 18.371 73.7714 16.1155 71.2098 15.6266ZM63.5139 11.0909C66.192 11.0909 68.4325 12.9991 68.9477 15.5273H50.2048C49.5922 15.5273 49.0958 16.0238 49.0958 16.6364C49.0958 17.2489 49.5922 17.7455 50.2048 17.7455H70.1685C71.6143 17.7455 72.8472 18.6728 73.305 19.9636H70.1685C69.5558 19.9636 69.0594 20.4602 69.0594 21.0727V35.4909C69.0594 36.1034 69.5558 36.6 70.1685 36.6H73.4958V44.3636H65.3491C63.4285 41.0519 59.8465 38.8182 55.7503 38.8182C50.0091 38.8182 45.2732 43.2034 44.715 48.8H42.4412V17.7455H45.7685C46.3811 17.7455 46.8776 17.2489 46.8776 16.6364C46.8776 16.0238 46.3811 15.5273 45.7685 15.5273H42.4412V11.0909H63.5139ZM73.4958 22.1818V34.3818H71.2776V22.1818H73.4958ZM40.223 44.3636H25.1261C23.2053 41.0519 19.6234 38.8182 15.5273 38.8182C11.4312 38.8182 7.84926 41.0519 5.92846 44.3636H2.21818V36.6H40.223V44.3636ZM26.1076 46.5818H40.223V48.8H26.5626C26.4863 48.0352 26.3317 47.2933 26.1076 46.5818ZM40.223 2.21818V34.3818H2.21818V2.21818H40.223ZM2.21818 46.5818H4.94699C4.7228 47.2933 4.56827 48.0352 4.49197 48.8H2.21818V46.5818ZM15.5273 58.7818C10.6349 58.7818 6.65455 54.8015 6.65455 49.9091C6.65455 45.0167 10.6349 41.0364 15.5273 41.0364C20.4197 41.0364 24.4 45.0167 24.4 49.9091C24.4 54.8015 20.4197 58.7818 15.5273 58.7818ZM55.7503 58.7818C50.8579 58.7818 46.8776 54.8015 46.8776 49.9091C46.8776 45.0167 50.8579 41.0364 55.7503 41.0364C60.6427 41.0364 64.623 45.0167 64.623 49.9091C64.623 54.8015 60.6427 58.7818 55.7503 58.7818ZM66.7856 48.8C66.7093 48.0352 66.5548 47.2933 66.3306 46.5818H73.4958V48.8H66.7856Z" fill="#217A7B"/>
<path d="M54.6412 36.6H65.7321C66.3448 36.6 66.8412 36.1034 66.8412 35.4909V21.0727C66.8412 20.4602 66.3448 19.9636 65.7321 19.9636H50.2049C49.5922 19.9636 49.0958 20.4602 49.0958 21.0727V31.0545C49.0958 34.1124 51.5834 36.6 54.6412 36.6ZM51.3139 22.1818H64.623V34.3818H54.6412C52.8066 34.3818 51.3139 32.8893 51.3139 31.0545V22.1818Z" fill="#217A7B"/>
<path d="M55.7503 43.2544C52.081 43.2544 49.0958 46.2396 49.0958 49.9089C49.0958 53.5783 52.081 56.5635 55.7503 56.5635C59.4196 56.5635 62.4049 53.5783 62.4049 49.9089C62.4049 46.2396 59.4196 43.2544 55.7503 43.2544ZM55.7503 54.3453C53.3041 54.3453 51.3139 52.3552 51.3139 49.9089C51.3139 47.4627 53.3041 45.4726 55.7503 45.4726C58.1965 45.4726 60.1867 47.4627 60.1867 49.9089C60.1867 52.3552 58.1965 54.3453 55.7503 54.3453Z" fill="#217A7B"/>
<path d="M15.5273 43.2544C11.858 43.2544 8.87274 46.2396 8.87274 49.9089C8.87274 53.5783 11.858 56.5635 15.5273 56.5635C19.1966 56.5635 22.1818 53.5783 22.1818 49.9089C22.1818 46.2396 19.1966 43.2544 15.5273 43.2544ZM15.5273 54.3453C13.0811 54.3453 11.0909 52.3552 11.0909 49.9089C11.0909 47.4627 13.0811 45.4726 15.5273 45.4726C17.9735 45.4726 19.9637 47.4627 19.9637 49.9089C19.9637 52.3552 17.9735 54.3453 15.5273 54.3453Z" fill="#217A7B"/>
</svg>
