<svg width="62" height="62" viewBox="0 0 62 62" fill="none" xmlns="http://www.w3.org/2000/svg">
<path d="M31 0C13.8951 0 0 13.8951 0 31C0 48.1049 13.8951 62 31 62C48.1049 62 62 48.1049 62 31C62 13.8951 48.1049 0 31 0ZM31 2.69565C46.648 2.69565 59.3043 15.352 59.3043 31C59.3043 46.648 46.648 59.3043 31 59.3043C15.352 59.3043 2.69565 46.648 2.69565 31C2.69565 15.352 15.352 2.69565 31 2.69565ZM30.9789 6.7207C30.6219 6.72628 30.2817 6.87328 30.033 7.12942C29.7842 7.38557 29.6473 7.72994 29.6522 8.08696V27.1908C28.8643 27.4694 28.1821 27.9852 27.6994 28.6673C27.2167 29.3494 26.9572 30.1644 26.9565 31C26.9578 31.6024 27.0936 32.1969 27.354 32.7401L19.2644 40.8297C19.1351 40.9538 19.0318 41.1026 18.9607 41.2672C18.8895 41.4318 18.8519 41.609 18.8501 41.7883C18.8483 41.9676 18.8822 42.1455 18.95 42.3115C19.0178 42.4775 19.118 42.6284 19.2448 42.7552C19.3716 42.882 19.5225 42.9822 19.6885 43.05C19.8545 43.1178 20.0324 43.1517 20.2117 43.1499C20.391 43.1481 20.5682 43.1105 20.7328 43.0393C20.8974 42.9682 21.0462 42.8649 21.1703 42.7356L29.2599 34.646C29.8031 34.9064 30.3976 35.0422 31 35.0435C32.0724 35.0435 33.1009 34.6175 33.8592 33.8592C34.6175 33.1009 35.0435 32.0724 35.0435 31C35.0423 30.1648 34.7825 29.3505 34.2999 28.6689C33.8172 27.9873 33.1353 27.4718 32.3478 27.1934V8.08696C32.3503 7.90663 32.3166 7.72764 32.2486 7.56059C32.1807 7.39354 32.0799 7.24183 31.9522 7.11443C31.8246 6.98703 31.6727 6.88654 31.5055 6.81891C31.3383 6.75128 31.1593 6.71789 30.9789 6.7207Z" fill="#217A7B"/>
</svg>
