<svg width="60" height="60" viewBox="0 0 60 60" fill="none" xmlns="http://www.w3.org/2000/svg">
<g clip-path="url(#clip0_21_69)">
<path d="M10.119 55.97L14.838 55.748L17.852 59.292C18.0425 59.5145 18.279 59.693 18.5453 59.8153C18.8115 59.9375 19.1011 60.0005 19.394 60C19.4917 59.9999 19.5893 59.9929 19.686 59.979C20.0241 59.9327 20.345 59.8014 20.6187 59.5975C20.8923 59.3936 21.1099 59.1237 21.251 58.813L30 39.456L38.75 58.815C38.8911 59.1253 39.1086 59.3948 39.3821 59.5984C39.6556 59.8019 39.9762 59.9329 40.314 59.979C40.4107 59.9929 40.5083 59.9999 40.606 60C40.8997 60.0004 41.1901 59.9369 41.4569 59.814C41.7236 59.691 41.9605 59.5116 42.151 59.288L45.191 55.74L49.891 55.97C50.2381 55.9861 50.5834 55.9123 50.8935 55.7556C51.2036 55.599 51.468 55.3649 51.661 55.076C51.8512 54.7955 51.966 54.4708 51.9942 54.1331C52.0224 53.7954 51.9631 53.4561 51.822 53.148L41.987 31.407C42.236 31.186 42.487 30.971 42.728 30.729C43.102 30.355 43.453 29.972 43.772 29.589C44.0056 29.3067 44.1563 28.9652 44.2073 28.6024C44.2583 28.2396 44.2077 27.8697 44.061 27.534L43.1 25.279C43.6586 24.277 44.0999 23.214 44.415 22.111L46.689 21.202C47.03 21.0683 47.3272 20.8426 47.5475 20.5501C47.7678 20.2576 47.9027 19.9096 47.937 19.545C47.982 19.055 48.004 18.536 48.004 18C48.004 17.464 47.982 16.945 47.937 16.457C47.9017 16.092 47.7659 15.7439 47.5447 15.4514C47.3235 15.1589 47.0256 14.9334 46.684 14.8L44.41 13.891C44.0964 12.7879 43.6569 11.7245 43.1 10.722L44.066 8.46597C44.2127 8.13035 44.2632 7.76057 44.212 7.39789C44.1608 7.0352 44.0099 6.69388 43.776 6.41198C43.459 6.02998 43.108 5.64698 42.734 5.27298C42.36 4.89898 41.978 4.54798 41.594 4.22798C41.312 3.99398 40.9704 3.84303 40.6075 3.79199C40.2446 3.74096 39.8746 3.79185 39.539 3.93898L37.283 4.90498C36.2798 4.34598 35.2154 3.90472 34.111 3.58998L33.2 1.31498C33.0666 0.973809 32.841 0.676433 32.5484 0.456053C32.2558 0.235674 31.9077 0.100967 31.543 0.0669756C30.5162 -0.0210231 29.4838 -0.0210231 28.457 0.0669756C28.0922 0.101277 27.7442 0.236217 27.4516 0.456752C27.159 0.677288 26.9334 0.97475 26.8 1.31598L25.889 3.58998C24.7863 3.90508 23.7236 4.34633 22.722 4.90498L20.468 3.93998C20.1321 3.79265 19.7619 3.74157 19.3987 3.79242C19.0355 3.84328 18.6935 3.99407 18.411 4.22798C18.027 4.54798 17.644 4.89998 17.272 5.27198C16.9 5.64398 16.546 6.02998 16.228 6.41198C15.9944 6.69424 15.8437 7.03577 15.7927 7.39858C15.7417 7.76139 15.7923 8.13124 15.939 8.46698L16.905 10.722C16.3465 11.7237 15.9053 12.7863 15.59 13.889L13.314 14.799C12.9734 14.9331 12.6766 15.1589 12.4565 15.4514C12.2364 15.7438 12.1016 16.0916 12.067 16.456C12.022 16.945 12 17.465 12 18C12 18.535 12.022 19.055 12.067 19.543C12.1014 19.9077 12.2364 20.2557 12.4569 20.5483C12.6774 20.8409 12.9748 21.0665 13.316 21.2L15.59 22.109C15.9051 23.212 16.3464 24.275 16.905 25.277L15.939 27.532C15.7922 27.8678 15.7416 28.2377 15.7928 28.6006C15.844 28.9634 15.995 29.3049 16.229 29.587C16.547 29.97 16.898 30.353 17.271 30.726C17.497 30.952 17.731 31.151 17.962 31.359L8.18 53.146C8.03851 53.4545 7.9789 53.7942 8.00692 54.1324C8.03495 54.4707 8.14966 54.796 8.34 55.077C8.53454 55.3664 8.80053 55.6007 9.1122 55.7572C9.42388 55.9136 9.77068 55.9869 10.119 55.97ZM45.27 53.741C44.9626 53.733 44.6572 53.7926 44.3753 53.9157C44.0935 54.0387 43.8421 54.2221 43.639 54.453L40.571 57.989L31.1 37.029L31.6 35.921C31.9532 35.8779 32.2883 35.7404 32.5699 35.5229C32.8514 35.3053 33.0691 35.0159 33.2 34.685L34.109 32.41C35.2124 32.0973 36.2759 31.6577 37.278 31.1L39.533 32.067C39.7309 32.1486 39.9405 32.1986 40.154 32.215L49.979 53.977L45.27 53.741ZM18.879 24.694C18.2099 23.5862 17.7113 22.3841 17.4 21.128C17.3618 20.9739 17.2874 20.8312 17.1831 20.7115C17.0788 20.5919 16.9474 20.4988 16.8 20.44L14.06 19.362C14.019 18.913 14 18.462 14 18C14 17.538 14.019 17.087 14.059 16.656L16.798 15.556C16.9453 15.4972 17.0766 15.4043 17.1809 15.2849C17.2852 15.1654 17.3596 15.0229 17.398 14.869C17.7104 13.6124 18.21 12.41 18.88 11.302C18.9619 11.166 19.0103 11.0124 19.0211 10.854C19.0318 10.6955 19.0047 10.5368 18.942 10.391L17.765 7.69098C18.055 7.34364 18.363 7.00831 18.689 6.68498C19.018 6.35398 19.355 6.04398 19.68 5.77598L22.4 6.94098C22.5459 7.00356 22.7047 7.03049 22.8631 7.01953C23.0215 7.00858 23.1751 6.96005 23.311 6.87798C24.4173 6.20981 25.6177 5.71159 26.872 5.39998C27.0261 5.36175 27.1688 5.2874 27.2885 5.18306C27.4081 5.07873 27.5012 4.94741 27.56 4.79998L28.637 2.05998C29.5378 1.97848 30.4442 1.97848 31.345 2.05998L32.44 4.79998C32.4988 4.94741 32.5919 5.07873 32.7115 5.18306C32.8312 5.2874 32.9739 5.36175 33.128 5.39998C34.3839 5.71215 35.5856 6.2114 36.693 6.88098C36.8289 6.96305 36.9825 7.01158 37.1409 7.02253C37.2993 7.03349 37.4581 7.00656 37.604 6.94398L40.304 5.76698C40.642 6.04798 40.979 6.35798 41.309 6.68998C41.639 7.02198 41.942 7.34798 42.219 7.68198L41.059 10.4C40.9963 10.5458 40.9692 10.7045 40.9799 10.863C40.9907 11.0214 41.0391 11.175 41.121 11.311C41.7895 12.4176 42.288 13.6183 42.6 14.873C42.6384 15.0269 42.7128 15.1694 42.8171 15.2889C42.9214 15.4083 43.0527 15.5012 43.2 15.56L45.938 16.638C45.979 17.087 45.998 17.544 45.998 18C45.998 18.456 45.979 18.913 45.946 19.34H45.938L43.2 20.44C43.0526 20.4988 42.9212 20.5919 42.8169 20.7115C42.7126 20.8312 42.6382 20.9739 42.6 21.128C42.2877 22.3843 41.7881 23.5864 41.118 24.694C41.0361 24.83 40.9877 24.9836 40.977 25.142C40.9662 25.3004 40.9933 25.4591 41.056 25.605L42.233 28.305C41.943 28.6523 41.635 28.988 41.309 29.312C40.987 29.635 40.651 29.944 40.318 30.221L37.6 29.059C37.454 28.9965 37.2952 28.9698 37.1368 28.9809C36.9784 28.992 36.8249 29.0407 36.689 29.123C35.5816 29.7923 34.3798 30.2912 33.124 30.603C32.9699 30.6412 32.8272 30.7156 32.7075 30.8199C32.5879 30.9242 32.4948 31.0555 32.436 31.203L31.36 33.942C30.4588 34.0215 29.5523 34.0215 28.651 33.942L27.551 31.202C27.4922 31.0545 27.3991 30.9232 27.2795 30.8189C27.1598 30.7146 27.0171 30.6402 26.863 30.602C25.6072 30.2902 24.4054 29.7913 23.298 29.122C23.1621 29.0397 23.0087 28.991 22.8502 28.9799C22.6918 28.9688 22.533 28.9955 22.387 29.058L19.687 30.236C19.341 29.946 19.005 29.636 18.687 29.313C18.369 28.99 18.054 28.654 17.777 28.321L18.941 25.604C19.0036 25.4582 19.0306 25.2997 19.0198 25.1415C19.009 24.9833 18.9608 24.8299 18.879 24.694ZM19.773 32.209C20.011 32.2022 20.2458 32.1524 20.466 32.062L22.722 31.095C23.7233 31.6543 24.786 32.0956 25.889 32.41L26.799 34.687C26.9332 35.0279 27.1593 35.325 27.4521 35.5451C27.745 35.7653 28.0932 35.8999 28.458 35.934C28.758 35.96 29.068 35.963 29.376 35.974L19.376 57.993L16.376 54.461C16.1716 54.2243 15.9164 54.0368 15.6296 53.9123C15.3427 53.7878 15.0315 53.7296 14.719 53.742L10 53.97L19.773 32.209Z" fill="#217A7B"/>
<path d="M30 29C32.9174 29 35.7153 27.8411 37.7782 25.7782C39.8411 23.7153 41 20.9174 41 18C41 15.0826 39.8411 12.2847 37.7782 10.2218C35.7153 8.15893 32.9174 7 30 7C29.7348 7 29.4804 7.10536 29.2929 7.29289C29.1054 7.48043 29 7.73478 29 8C29 8.26522 29.1054 8.51957 29.2929 8.70711C29.4804 8.89464 29.7348 9 30 9C32.2093 9.00143 34.3408 9.81616 35.9877 11.2888C37.6347 12.7614 38.6819 14.7887 38.9295 16.9841C39.1771 19.1795 38.6079 21.3892 37.3303 23.1917C36.0528 24.9942 34.1564 26.2632 32.0029 26.7568C29.8494 27.2503 27.5896 26.9338 25.6546 25.8676C23.7196 24.8013 22.2449 23.0601 21.5117 20.976C20.7786 18.8919 20.8383 16.6108 21.6796 14.5679C22.5209 12.5251 24.0848 10.8634 26.073 9.9C26.3117 9.78423 26.4946 9.57839 26.5815 9.32774C26.6685 9.0771 26.6523 8.8022 26.5365 8.5635C26.4207 8.32481 26.2149 8.14187 25.9642 8.05495C25.7136 7.96803 25.4387 7.98423 25.2 8.1C22.9587 9.1855 21.1521 10.9994 20.0756 13.245C18.9991 15.4906 18.7165 18.0351 19.2739 20.4622C19.8313 22.8893 21.1958 25.0555 23.1442 26.6064C25.0927 28.1573 27.5097 29.0012 30 29Z" fill="#217A7B"/>
<path d="M25.293 19.293C25.1055 19.4805 25.0002 19.7348 25.0002 20C25.0002 20.2652 25.1055 20.5195 25.293 20.707L27.293 22.707C27.4805 22.8946 27.7348 22.9999 28 23H28.071C28.2141 22.9895 28.3533 22.9484 28.479 22.8794C28.6048 22.8104 28.7143 22.7151 28.8 22.6L34.8 14.6C34.9591 14.3878 35.0275 14.1211 34.9899 13.8586C34.9524 13.596 34.8122 13.3591 34.6 13.2C34.3878 13.0409 34.1211 12.9725 33.8586 13.0101C33.596 13.0476 33.3591 13.1878 33.2 13.4L27.892 20.478L26.707 19.293C26.5195 19.1055 26.2652 19.0002 26 19.0002C25.7348 19.0002 25.4805 19.1055 25.293 19.293Z" fill="#217A7B"/>
<path d="M15.111 49.912C15.2307 49.966 15.3599 49.996 15.4911 50.0001C15.6224 50.0042 15.7532 49.9825 15.8761 49.936C15.9989 49.8896 16.1114 49.8194 16.2072 49.7295C16.3029 49.6396 16.38 49.5317 16.434 49.412L22.272 36.412C22.3278 36.2919 22.3592 36.162 22.3644 36.0297C22.3695 35.8975 22.3484 35.7655 22.3022 35.6414C22.256 35.5174 22.1856 35.4038 22.0951 35.3071C22.0046 35.2105 21.8959 35.1328 21.7752 35.0785C21.6544 35.0243 21.5241 34.9945 21.3918 34.991C21.2595 34.9874 21.1278 35.0102 21.0043 35.058C20.8808 35.1057 20.7681 35.1775 20.6726 35.2692C20.5771 35.3609 20.5008 35.4706 20.448 35.592L14.609 48.592C14.5009 48.8337 14.4931 49.1083 14.5872 49.3558C14.6813 49.6032 14.8696 49.8032 15.111 49.912Z" fill="#217A7B"/>
<path d="M39.434 35.59C39.3253 35.348 39.1248 35.1591 38.8768 35.0649C38.6288 34.9706 38.3535 34.9788 38.1115 35.0875C37.8695 35.1963 37.6806 35.3967 37.5864 35.6447C37.4921 35.8927 37.5003 36.168 37.609 36.41L43.448 49.41C43.5008 49.5314 43.5771 49.6411 43.6726 49.7328C43.7681 49.8245 43.8808 49.8963 44.0043 49.944C44.1278 49.9918 44.2595 50.0146 44.3918 50.0111C44.5241 50.0075 44.6544 49.9778 44.7752 49.9235C44.8959 49.8692 45.0046 49.7915 45.0951 49.6949C45.1856 49.5982 45.256 49.4846 45.3022 49.3606C45.3484 49.2365 45.3695 49.1045 45.3644 48.9723C45.3592 48.84 45.3278 48.7101 45.272 48.59L39.434 35.59Z" fill="#217A7B"/>
</g>
<defs>
<clipPath id="clip0_21_69">
<rect width="60" height="60" fill="white"/>
</clipPath>
</defs>
</svg>
