

<svg width="17" height="17" viewBox="0 0 17 17" fill="none" xmlns="http://www.w3.org/2000/svg">
<g id="1904662-location-map-map-location-map-point-pin-place-placeholder_122512 1" clip-path="url(#clip0_133_102)">
<path id="Vector" d="M8.50001 17C8.37961 17.0005 8.26029 16.9774 8.14885 16.9318C8.03741 16.8862 7.93605 16.8191 7.85055 16.7343L3.48368 12.3675C2.79419 11.6818 2.24842 10.8655 1.87829 9.96625C1.50816 9.06705 1.32113 8.10305 1.32813 7.13068C1.32516 6.18923 1.51005 5.25665 1.87197 4.38755C2.23389 3.51844 2.76556 2.73027 3.43587 2.06919C4.78966 0.746428 6.60727 0.00585937 8.50001 0.00585938C10.3927 0.00585938 12.2104 0.746428 13.5641 2.06919C14.2344 2.73027 14.7661 3.51844 15.128 4.38755C15.49 5.25665 15.6749 6.18923 15.6719 7.13068C15.6789 8.10305 15.4918 9.06705 15.1217 9.96625C14.7516 10.8655 14.2058 11.6818 13.5163 12.3675L9.14946 16.7264C9.06462 16.8126 8.96355 16.8811 8.85208 16.9281C8.74062 16.9751 8.62096 16.9995 8.50001 17ZM8.50001 0.79685C6.81473 0.792968 5.19593 1.45395 3.99501 2.6363C3.40006 3.22369 2.92823 3.92384 2.60714 4.69578C2.28605 5.46773 2.12214 6.29595 2.12501 7.13201C2.11863 7.99926 2.28531 8.85908 2.6153 9.66113C2.94529 10.4632 3.43195 11.1914 4.0468 11.803L8.41235 16.1619C8.42362 16.1736 8.43714 16.1829 8.45208 16.1893C8.46703 16.1956 8.4831 16.1989 8.49934 16.1989C8.51558 16.1989 8.53165 16.1956 8.5466 16.1893C8.56155 16.1829 8.57506 16.1736 8.58633 16.1619L12.9532 11.803C13.5681 11.1914 14.0547 10.4632 14.3847 9.66113C14.7147 8.85908 14.8814 7.99926 14.875 7.13201C14.8779 6.29595 14.714 5.46773 14.3929 4.69578C14.0718 3.92384 13.6 3.22369 13.005 2.6363C11.8041 1.45395 10.1853 0.792968 8.50001 0.79685Z" fill="#217A7B"/>
<path id="Vector_2" d="M8.50003 10.8125C7.66294 10.8121 6.85188 10.5216 6.20495 9.99034C5.55803 9.45911 5.11526 8.72006 4.95204 7.89904C4.78882 7.07802 4.91525 6.22581 5.3098 5.48754C5.70434 4.74927 6.34261 4.17059 7.11589 3.85006C7.88917 3.52953 8.74966 3.48696 9.5508 3.72961C10.3519 3.97225 11.0442 4.48511 11.5097 5.18084C11.9752 5.87657 12.1851 6.71214 12.1037 7.54526C12.0223 8.37838 11.6546 9.15752 11.0633 9.75C10.727 10.0871 10.3275 10.3545 9.88762 10.5369C9.44775 10.7192 8.9762 10.8129 8.50003 10.8125ZM8.50003 4.37242C7.84691 4.37346 7.21435 4.60088 6.71009 5.01594C6.20582 5.431 5.86104 6.00804 5.73446 6.64878C5.60788 7.28951 5.70733 7.95431 6.01588 8.52995C6.32443 9.10558 6.82299 9.55646 7.42665 9.80578C8.0303 10.0551 8.70172 10.0874 9.32655 9.8973C9.95137 9.70716 10.491 9.30629 10.8534 8.76298C11.2159 8.21966 11.3788 7.5675 11.3143 6.91757C11.2499 6.26763 10.9622 5.66013 10.5002 5.19852C10.2375 4.936 9.92566 4.7279 9.58243 4.58615C9.2392 4.44439 8.87138 4.37176 8.50003 4.37242Z" fill="#217A7B"/>
</g>
<defs>
<clipPath id="clip0_133_102">
<rect width="17" height="17" fill="white"/>
</clipPath>
</defs>
</svg>
