<svg width="193" height="66" viewBox="0 0 193 66" fill="none" xmlns="http://www.w3.org/2000/svg">
<path d="M126.803 54.9101C124.952 55.2815 123.425 57.3237 123.425 59.4124C123.471 62.4759 125.09 63.8683 128.653 63.8683C130.042 63.8683 131.106 63.5434 131.985 62.8472C133.188 61.9189 133.188 61.8261 132.448 61.2691C131.754 60.7585 131.476 60.7585 130.643 61.3155C129.301 62.2902 127.312 62.1974 126.201 61.0834C125.09 59.9694 125.044 59.3196 126.016 57.9271C126.803 56.7668 129.764 56.4883 130.736 57.463C131.106 57.8343 131.43 57.8343 131.985 57.3702C132.355 57.0453 132.679 56.6739 132.679 56.4883C132.679 55.5135 128.838 54.4924 126.803 54.9101Z" fill="#1C1C1C"/>
<path d="M2.53659 55.3627C1.66031 57.7519 0 63.1516 0 63.4861C0 63.725 0.461198 63.8683 1.01464 63.7728C1.75255 63.6772 2.21375 63.0082 2.81331 61.2402C3.45899 59.281 3.64347 58.9943 3.92019 59.8066C5.16542 63.1516 5.5805 63.8683 6.13394 63.8683C6.54902 63.8683 7.05633 62.9604 7.37917 61.718C7.70201 60.5234 8.11709 59.4244 8.34769 59.3288C8.53217 59.1854 9.03949 60.1411 9.45456 61.4791C10.008 63.2471 10.4692 63.8683 11.1149 63.8683C12.2679 63.8683 12.2218 62.9604 10.6537 58.612C8.99337 54.0247 8.02485 53.7858 6.87185 57.6563C6.41066 59.2332 5.99558 59.9978 5.8111 59.5677C5.67274 59.1854 5.25766 57.9908 4.93482 56.9396C4.28914 55.0282 2.95167 54.168 2.53659 55.3627Z" fill="#1C1C1C"/>
<path d="M15.7259 59.3175V63.8683L20.038 63.7261C23.4691 63.6313 24.3037 63.4417 24.3037 62.8728C24.3037 62.3514 23.5154 62.1144 21.058 61.9247C18.4615 61.7351 17.8124 61.5455 17.6733 60.8344C17.5342 60.1708 17.8587 60.0286 19.6207 60.0286C21.429 60.0286 21.7535 59.8863 21.7535 59.0805C21.7535 58.2746 21.429 58.1324 19.667 58.1324C18.1369 58.1324 17.5805 57.9427 17.5805 57.4213C17.5805 56.8524 18.2297 56.7102 20.8262 56.7102C23.7473 56.7102 24.0718 56.6154 24.0718 55.7621C24.0718 54.8614 23.7473 54.814 19.8989 54.814H15.7259V59.3175Z" fill="#1C1C1C"/>
<path d="M28.1161 59.3412V63.8683H31.2956C34.1117 63.8683 34.6568 63.7254 35.6107 62.677C36.9279 61.3427 37.0187 60.6755 36.0195 59.1982C35.429 58.2928 34.9293 58.1498 32.6128 58.1498C30.5234 58.1498 29.933 58.0069 29.933 57.435C29.933 56.8632 30.5689 56.7202 32.8854 56.7202C35.5198 56.7202 35.8378 56.6249 35.8378 55.7671C35.8378 54.9093 35.5198 54.814 31.9769 54.814H28.1161V59.3412ZM34.3843 60.8661C34.248 61.5333 33.7938 61.7239 32.204 61.7239C30.6143 61.7239 30.1601 61.5333 30.0238 60.8661C29.8875 60.199 30.2055 60.056 32.204 60.056C34.2026 60.056 34.5205 60.199 34.3843 60.8661Z" fill="#1C1C1C"/>
<path d="M41.1174 58.9835L41.2521 63.1984L45.4287 63.3343C49.3359 63.4703 49.5604 63.425 49.5604 62.5186C49.5604 61.7028 49.291 61.6121 46.4168 61.6121C43.5874 61.6121 43.2731 61.5215 43.2731 60.7057C43.2731 59.9353 43.5874 59.7993 45.294 59.7993C47.0006 59.7993 47.315 59.6633 47.315 58.8929C47.315 58.1224 47.0006 57.9864 45.294 57.9864C43.812 57.9864 43.2731 57.8052 43.2731 57.3066C43.2731 56.7628 43.9018 56.6268 46.1922 56.6268C48.797 56.6268 49.1113 56.5362 49.1113 55.7204C49.1113 54.8593 48.797 54.8139 45.0695 54.8139H40.9827L41.1174 58.9835Z" fill="#1C1C1C"/>
<path d="M56.5445 55.6869C56.2709 56.1654 55.3588 58.2227 54.4924 60.2322L52.8963 63.8683H54.0364C54.9484 63.8683 55.3588 63.3421 56.4077 60.902L57.6845 57.9356L58.9158 60.902C59.9646 63.3899 60.3751 63.8683 61.3327 63.8683C61.9255 63.8683 62.4272 63.7727 62.4272 63.677C62.4272 63.5813 61.5151 61.5718 60.3751 59.1317C58.323 54.73 57.4109 53.9167 56.5445 55.6869Z" fill="#1C1C1C"/>
<path d="M65.2864 59.3412V63.8683H68.5269C72.4822 63.8683 73.8642 63.1059 73.8642 60.8185C73.8642 58.7217 73.1971 58.2451 70.0519 58.0545C67.4785 57.9116 67.4309 57.8639 67.2879 56.339C67.1926 55.1953 66.9067 54.814 66.1919 54.814C65.3817 54.814 65.2864 55.1953 65.2864 59.3412ZM71.6721 60.4849C72.1487 61.2474 70.6237 62.0098 69.0035 61.8669C67.9551 61.7716 67.3832 61.438 67.2879 60.8661C67.145 60.199 67.4785 60.056 69.2894 60.056C70.4808 60.056 71.5292 60.2466 71.6721 60.4849Z" fill="#1C1C1C"/>
<path d="M77.3416 58.9938C77.4832 62.9919 77.5304 63.219 78.5684 63.3553C79.512 63.4916 79.6064 63.3099 79.6064 61.6743V59.8116H81.9655H84.3246V61.6743C84.3246 63.3099 84.419 63.4916 85.4098 63.3553C86.4007 63.219 86.4478 62.9919 86.5894 58.9938L86.7309 54.8139H85.5042C84.5134 54.8139 84.3246 55.0411 84.3246 56.1769C84.3246 57.4945 84.2774 57.5399 81.9655 57.5399C79.6536 57.5399 79.6064 57.4945 79.6064 56.1769C79.6064 55.0411 79.4177 54.8139 78.4268 54.8139H77.2001L77.3416 58.9938Z" fill="#1C1C1C"/>
<path d="M93.3071 55.9083C92.2111 57.526 89.5901 62.8071 89.5901 63.378C89.5901 64.2344 91.4486 63.9014 91.9728 62.9022C92.354 62.1886 92.9735 61.9507 94.5938 61.9507C96.2617 61.9507 96.7382 62.141 96.9765 62.9022C97.1671 63.5207 97.6913 63.8538 98.4538 63.8538C99.0733 63.8538 99.5975 63.7586 99.5975 63.6159C99.5975 62.6643 95.1656 54.814 94.6414 54.814C94.2602 54.814 93.6884 55.2898 93.3071 55.9083ZM95.3086 59.6669C95.3086 59.9048 94.975 60.0476 94.5938 60.0476C93.879 60.0476 93.6407 59.0484 94.2126 58.4775C94.5461 58.1445 95.3086 59.0009 95.3086 59.6669Z" fill="#1C1C1C"/>
<path d="M103.801 55.3859C102.457 56.5296 102.412 58.0545 103.622 59.3412L104.787 60.5802L103.622 62.2481L102.457 63.8683H103.577C104.294 63.8683 105.056 63.3441 105.863 62.2004C107.477 59.9607 109.135 59.8654 109.359 62.0575C109.449 63.2488 109.718 63.6777 110.525 63.773C111.466 63.916 111.511 63.8207 111.511 59.3888V54.814H108.015C105.908 54.814 104.25 55.0523 103.801 55.3859ZM109.27 57.6733C109.27 58.4834 108.956 58.6264 107.298 58.6264C106.177 58.6264 105.146 58.3881 105.012 58.1498C104.474 57.2444 105.281 56.7202 107.298 56.7202C108.956 56.7202 109.27 56.8632 109.27 57.6733Z" fill="#1C1C1C"/>
<path d="M136.291 55.7671C136.291 56.5296 136.625 56.7202 137.959 56.7202H139.627V60.2943C139.627 63.5348 139.722 63.8683 140.58 63.8683C141.438 63.8683 141.533 63.5348 141.533 60.2943V56.7202H143.439C145.012 56.7202 145.346 56.5772 145.346 55.7671C145.346 54.8617 145.012 54.814 140.818 54.814C136.625 54.814 136.291 54.8617 136.291 55.7671Z" fill="#1C1C1C"/>
<path d="M148.205 55.0523C148.205 55.1953 148.94 56.5296 149.859 58.0069C151.376 60.4372 151.468 60.7708 150.916 61.9145C150.594 62.5817 150.227 63.2965 150.135 63.4871C150.043 63.7254 150.457 63.8683 151.1 63.8683C152.019 63.8683 152.616 63.2012 154.225 60.3896C155.282 58.5311 156.476 56.4819 156.844 55.8624C157.487 54.8617 157.441 54.814 156.293 54.814C155.374 54.814 154.822 55.2429 154.133 56.4819C153.581 57.3874 152.984 58.1498 152.8 58.1498C152.616 58.1498 152.019 57.3874 151.468 56.4819C150.778 55.2906 150.227 54.814 149.354 54.814C148.71 54.814 148.205 54.9093 148.205 55.0523Z" fill="#1C1C1C"/>
<path d="M161.162 58.2877C160.149 60.5109 159.32 61.7615 158.86 61.7615C158.262 61.7615 158.124 62.1783 158.262 63.7068C158.4 65.8837 159.643 66.5784 159.919 64.6331C160.057 63.6605 160.287 63.6141 163.464 63.6141C166.64 63.6141 166.87 63.6605 167.008 64.6331C167.285 66.5784 168.528 65.8837 168.666 63.7068C168.758 62.1783 168.666 61.7615 168.067 61.7615C167.607 61.7615 166.778 60.4646 165.765 58.2877C164.799 56.1108 163.924 54.814 163.464 54.814C163.003 54.814 162.175 56.1108 161.162 58.2877ZM164.384 59.7235C164.753 60.6499 165.075 61.4836 165.075 61.5762C165.075 61.6688 164.338 61.7615 163.464 61.7615C162.589 61.7615 161.852 61.6688 161.852 61.5762C161.852 61.1594 163.28 58.0561 163.464 58.0561C163.602 58.0561 164.016 58.7972 164.384 59.7235Z" fill="#1C1C1C"/>
<path d="M172.166 59.0116C172.345 64.1737 172.838 64.4454 175.658 60.9587L177.672 58.4683L177.895 60.8682C178.074 62.9058 178.253 63.2228 179.149 63.3587C180.089 63.4945 180.133 63.4039 180.133 59.1928C180.133 53.8949 179.641 53.6232 176.463 57.2004L174.36 59.6003L174.315 57.2004C174.315 54.9816 174.27 54.8458 173.196 54.8458H172.032L172.166 59.0116Z" fill="#1C1C1C"/>
<path d="M185.129 55.5765C184.089 56.6725 184.224 58.9123 185.355 59.7701L186.305 60.4849L185.355 61.8669C184.179 63.6301 184.179 63.8683 185.265 63.8683C185.762 63.8683 186.712 63.1059 187.391 62.2004C188.25 60.9614 188.929 60.5325 189.879 60.5325C191.055 60.5325 191.191 60.6755 191.191 62.2004C191.191 63.5348 191.371 63.8683 192.095 63.8683C192.955 63.8683 193 63.5348 193 59.3412V54.814H189.426C186.757 54.814 185.627 55.0046 185.129 55.5765ZM191.1 57.5303C191.01 58.1498 190.422 58.4358 188.974 58.5311C187.888 58.6264 186.803 58.4834 186.577 58.2451C185.717 57.3397 186.712 56.7202 188.974 56.7202C190.919 56.7202 191.236 56.8632 191.1 57.5303Z" fill="#1C1C1C"/>
<path d="M0.109224 5.2587L0.218448 7.37037L9.42967 7.47959L18.6045 7.55241V12.0306C18.6045 17.0549 18.0948 18.6933 16.0923 20.4044C13.9443 22.1884 9.79375 22.2248 7.46364 20.4772C6.04373 19.385 4.80585 17.0549 4.76945 15.4529C4.76945 14.5063 4.73304 14.4699 2.58497 14.4699H0.400488V15.8534C0.400488 18.402 1.45632 20.6957 3.67721 22.9166C6.00732 25.2467 8.1918 26.1205 11.687 26.1205C15.1821 26.1205 17.3666 25.2467 19.6967 22.9166C22.6458 19.8947 22.9734 18.6568 22.9734 10.0646V3.18345H11.5049H0L0.109224 5.2587Z" fill="#1C1C1C"/>
<path d="M31.6792 14.2173V25.5402L33.9729 25.4309L36.2302 25.3217V14.2173V3.11284L33.9729 3.00361L31.6792 2.89439V14.2173Z" fill="#1C1C1C"/>
<path fill-rule="evenodd" clip-rule="evenodd" d="M182.816 42.6926C179.904 39.78 180.596 35.047 184.164 33.2994C187.841 31.479 192.283 33.8819 192.719 37.9232C193.338 43.2024 186.603 46.4427 182.816 42.6926ZM189.297 38.797C190.207 38.3237 190.134 36.1028 189.224 35.5931C188.824 35.411 187.513 35.229 186.312 35.229H184.091V38.5057C184.091 41.5276 184.127 41.7824 184.819 41.7824C185.401 41.7824 185.547 41.5276 185.547 40.5082C185.547 39.4159 185.656 39.2339 186.421 39.2339C187.04 39.2339 187.513 39.598 188.059 40.5082C188.533 41.3091 189.079 41.7824 189.552 41.7824H190.353L189.516 40.4718C188.787 39.2703 188.751 39.1247 189.297 38.797ZM187.113 37.7047C185.875 37.8139 185.547 37.7047 185.547 37.2314C185.547 36.7581 185.875 36.6489 187.113 36.7581C187.95 36.8309 188.642 37.013 188.642 37.2314C188.642 37.4134 187.95 37.6319 187.113 37.7047Z" fill="#1C1C1C"/>
<path d="M95.352 21.5129C91.2743 22.2411 87.5971 25.5178 86.4684 29.4499C85.6674 32.1441 85.9223 36.1125 87.0145 38.3698C88.034 40.4451 90.182 42.7024 92.2209 43.7946C93.568 44.5228 94.3325 44.632 97.6093 44.632C100.886 44.632 101.651 44.5228 102.961 43.7946C105.255 42.5932 106.82 41.1004 108.022 38.916C109.005 37.132 109.078 36.7315 109.078 33.1635C109.078 29.5955 109.005 29.195 107.986 27.3746C105.51 22.86 100.595 20.6027 95.352 21.5129ZM99.8301 25.9547C103.07 27.047 104.672 29.4135 104.709 33.1635C104.709 37.6417 101.905 40.5907 97.6093 40.5543C95.3156 40.5179 93.8956 39.9354 92.4393 38.3698C91.1286 36.9863 90.6189 35.5664 90.6189 33.1635C90.6189 29.7776 92.0024 27.5567 94.8787 26.2096C96.5534 25.445 98.0826 25.3358 99.8301 25.9547Z" fill="#1C1C1C"/>
<path d="M127.375 21.1949C125.008 21.5954 122.132 23.2701 120.639 25.0541C116.853 29.7144 117.18 37.0688 121.367 41.2557C123.952 43.8407 125.263 44.314 129.632 44.314C132.909 44.314 133.673 44.2047 134.984 43.4766C137.277 42.2751 138.843 40.746 140.008 38.5979C140.918 36.9595 141.1 36.1586 141.21 33.2823C141.355 30.0784 141.319 29.7872 140.227 27.5663C137.824 22.6876 132.836 20.2119 127.375 21.1949ZM131.962 25.6367C137.751 27.3842 138.588 36.377 133.236 39.3625C131.379 40.4183 128.175 40.5275 126.428 39.6173C121.076 36.8503 121.367 28.4037 126.901 25.8915C128.612 25.0905 129.923 25.0541 131.962 25.6367Z" fill="#1C1C1C"/>
<path d="M47.949 14.1627C49.5874 9.50249 51.335 4.40537 51.8447 2.83982L52.8277 0L54.4661 0.109224L56.1044 0.218448L58.653 7.39082C60.0365 11.3593 61.2744 14.454 61.42 14.3083C61.5656 14.1627 62.8035 10.886 64.1506 7.02674L66.6628 0L68.3011 0.109224L69.9395 0.218448L73.6531 10.9588C75.6919 16.8569 77.3558 22.5365 77.3558 22.5365C77.3558 22.5365 76.5974 22.5365 75.1458 22.5365C73.6942 22.5365 73.1424 22.5365 73.1424 22.5365L70.704 15.8011C69.4662 12.1603 68.3739 9.102 68.2647 8.95637C68.1191 8.84714 67.6458 9.83016 67.2089 11.2137C66.7356 12.5608 65.6433 15.6918 64.7331 18.1676L63.1291 22.4273H61.2658H59.4904L57.0875 15.619C55.7768 11.8326 54.6117 8.88355 54.5025 8.99277C54.3933 9.102 53.301 12.1603 52.0632 15.8011L50 22.6458H47.5H45L47.949 14.1627Z" fill="#7AAFB0"/>
<path d="M150 32.9911V44.314H155.971C160.886 44.314 162.342 44.2047 164.272 43.5858C167.221 42.6756 169.296 40.928 170.643 38.1974C171.517 36.4134 171.663 35.6853 171.663 33.0275C171.663 30.3697 171.517 29.6415 170.643 27.8576C169.551 25.6367 167.949 24.0347 165.546 22.7604C164.126 21.9959 163.471 21.923 157.027 21.8138L150 21.6682V32.9911ZM163.653 26.6925C166.347 27.9668 167.84 31.4255 167.112 34.7023C166.202 38.6707 164.126 39.9086 158.483 39.945H154.733V32.7726V25.6367L158.556 25.8551C160.995 26.0007 162.852 26.292 163.653 26.6925Z" fill="#1C1C1C"/>
<path d="M50 22.314H45L53 44.814H56L61.5 30.314L66.5 44.814H70L77.5 22.314H73L68 35.814L63 22.314H59.5L54.5 35.814L50 22.314Z" fill="#7AAFB0"/>
</svg>
