<svg width="238" height="46" viewBox="0 0 238 46" fill="none" xmlns="http://www.w3.org/2000/svg">
<path d="M141.456 33.9133C139.4 34.3258 137.703 36.5948 137.703 38.9153C137.755 42.3187 139.554 43.8657 143.512 43.8657C145.054 43.8657 146.237 43.5048 147.213 42.7313C148.55 41.6999 148.55 41.5968 147.728 40.978C146.956 40.4107 146.648 40.4107 145.723 41.0295C144.232 42.1124 142.021 42.0093 140.788 40.7717C139.554 39.5341 139.502 38.8122 140.582 37.2652C141.456 35.976 144.746 35.6666 145.825 36.7495C146.237 37.162 146.597 37.162 147.213 36.6464C147.625 36.2854 147.985 35.8728 147.985 35.6666C147.985 34.5837 143.718 33.4492 141.456 33.9133Z" fill="#1C1C1C"/>
<path d="M3.39819 34.4161C2.42466 37.0705 0.580078 43.0694 0.580078 43.441C0.580078 43.7065 1.09246 43.8657 1.70732 43.7595C2.52713 43.6534 3.03952 42.9101 3.70562 40.9459C4.42295 38.7693 4.62791 38.4507 4.93534 39.3532C6.31877 43.0694 6.77991 43.8657 7.39477 43.8657C7.85592 43.8657 8.41954 42.8571 8.77821 41.4768C9.13688 40.1496 9.59802 38.9285 9.85421 38.8224C10.0592 38.6631 10.6228 39.7249 11.0839 41.2113C11.6988 43.1756 12.2112 43.8657 12.9285 43.8657C14.2095 43.8657 14.1582 42.8571 12.4161 38.026C10.5716 32.9296 9.49555 32.6641 8.21459 36.9643C7.7022 38.7162 7.24106 39.5656 7.03611 39.0878C6.88239 38.6631 6.42125 37.3359 6.06258 36.168C5.34524 34.0444 3.85933 33.0889 3.39819 34.4161Z" fill="#1C1C1C"/>
<path d="M18.0518 38.8098V43.8657L22.8424 43.7077C26.6543 43.6024 27.5815 43.3917 27.5815 42.7597C27.5815 42.1804 26.7058 41.9171 23.9757 41.7064C21.091 41.4958 20.3698 41.2851 20.2153 40.4951C20.0607 39.7578 20.4213 39.5998 22.3788 39.5998C24.3878 39.5998 24.7483 39.4418 24.7483 38.5465C24.7483 37.6511 24.3878 37.4931 22.4303 37.4931C20.7304 37.4931 20.1122 37.2825 20.1122 36.7032C20.1122 36.0712 20.8334 35.9132 23.7181 35.9132C26.9634 35.9132 27.324 35.8078 27.324 34.8598C27.324 33.8592 26.9634 33.8065 22.6879 33.8065H18.0518V38.8098Z" fill="#1C1C1C"/>
<path d="M31.8164 38.8361V43.8657H35.3488C38.4775 43.8657 39.083 43.7069 40.1427 42.5421C41.6062 41.0597 41.7071 40.3185 40.5969 38.6773C39.9409 37.6714 39.3858 37.5125 36.8122 37.5125C34.4909 37.5125 33.8349 37.3537 33.8349 36.7184C33.8349 36.0831 34.5414 35.9243 37.115 35.9243C40.0418 35.9243 40.3951 35.8184 40.3951 34.8654C40.3951 33.9124 40.0418 33.8065 36.1057 33.8065H31.8164V38.8361ZM38.7802 40.5303C38.6289 41.2715 38.1242 41.4833 36.358 41.4833C34.5919 41.4833 34.0872 41.2715 33.9358 40.5303C33.7844 39.7891 34.1377 39.6303 36.358 39.6303C38.5784 39.6303 38.9316 39.7891 38.7802 40.5303Z" fill="#1C1C1C"/>
<path d="M46.261 38.4387L46.4107 43.1214L51.0508 43.2724C55.3916 43.4235 55.6411 43.3731 55.6411 42.3661C55.6411 41.4598 55.3417 41.3591 52.1485 41.3591C49.0052 41.3591 48.6559 41.2584 48.6559 40.3521C48.6559 39.4961 49.0052 39.345 50.9012 39.345C52.7971 39.345 53.1464 39.194 53.1464 38.338C53.1464 37.4821 52.7971 37.331 50.9012 37.331C49.2547 37.331 48.6559 37.1296 48.6559 36.5757C48.6559 35.9715 49.3544 35.8205 51.899 35.8205C54.7929 35.8205 55.1421 35.7198 55.1421 34.8134C55.1421 33.8568 54.7929 33.8064 50.6517 33.8064H46.1113L46.261 38.4387Z" fill="#1C1C1C"/>
<path d="M63.3997 34.7763C63.0958 35.3078 62.0825 37.5935 61.1199 39.826L59.3467 43.8657H60.6133C61.6265 43.8657 62.0825 43.281 63.2478 40.5701L64.6663 37.2746L66.0342 40.5701C67.1995 43.3342 67.6555 43.8657 68.7194 43.8657C69.378 43.8657 69.9353 43.7594 69.9353 43.6531C69.9353 43.5468 68.922 41.3143 67.6555 38.6034C65.3756 33.7132 64.3623 32.8096 63.3997 34.7763Z" fill="#1C1C1C"/>
<path d="M73.1123 38.8361V43.8657H76.7124C81.1067 43.8657 82.6421 43.0186 82.6421 40.4774C82.6421 38.1479 81.9009 37.6184 78.4066 37.4067C75.5477 37.2478 75.4947 37.1949 75.3359 35.5007C75.23 34.2301 74.9124 33.8065 74.1182 33.8065C73.2182 33.8065 73.1123 34.2301 73.1123 38.8361ZM80.2067 40.1068C80.7361 40.9539 79.0419 41.8009 77.2419 41.6421C76.0771 41.5362 75.4418 41.1656 75.3359 40.5303C75.1771 39.7891 75.5477 39.6303 77.5595 39.6303C78.8831 39.6303 80.0479 39.842 80.2067 40.1068Z" fill="#1C1C1C"/>
<path d="M86.5049 38.4501C86.6622 42.892 86.7146 43.1443 87.8678 43.2958C88.9162 43.4472 89.021 43.2453 89.021 41.4282V39.3587H91.642H94.2629V41.4282C94.2629 43.2453 94.3678 43.4472 95.4685 43.2958C96.5693 43.1443 96.6218 42.892 96.779 38.4501L96.9363 33.8064H95.5734C94.4726 33.8064 94.2629 34.0588 94.2629 35.3207C94.2629 36.7845 94.2105 36.8349 91.642 36.8349C89.0734 36.8349 89.021 36.7845 89.021 35.3207C89.021 34.0588 88.8113 33.8064 87.7105 33.8064H86.3477L86.5049 38.4501Z" fill="#1C1C1C"/>
<path d="M104.243 35.0223C103.025 36.8194 100.113 42.6867 100.113 43.321C100.113 44.2724 102.178 43.9024 102.76 42.7924C103.184 41.9995 103.872 41.7352 105.672 41.7352C107.525 41.7352 108.055 41.9467 108.319 42.7924C108.531 43.4795 109.114 43.8495 109.961 43.8495C110.649 43.8495 111.231 43.7438 111.231 43.5853C111.231 42.5281 106.308 33.8065 105.725 33.8065C105.302 33.8065 104.666 34.3351 104.243 35.0223ZM106.466 39.198C106.466 39.4623 106.096 39.6209 105.672 39.6209C104.878 39.6209 104.613 38.5109 105.249 37.8766C105.619 37.5066 106.466 38.458 106.466 39.198Z" fill="#1C1C1C"/>
<path d="M115.902 34.4418C114.408 35.7125 114.358 37.4067 115.703 38.8361L116.998 40.2126L115.703 42.0657L114.408 43.8657H115.653C116.45 43.8657 117.296 43.2833 118.193 42.0127C119.986 39.5244 121.828 39.4185 122.077 41.8539C122.177 43.1775 122.475 43.654 123.372 43.7598C124.418 43.9187 124.467 43.8128 124.467 38.8891V33.8065H120.583C118.243 33.8065 116.4 34.0712 115.902 34.4418ZM121.977 36.9831C121.977 37.8832 121.629 38.042 119.786 38.042C118.541 38.042 117.396 37.7773 117.247 37.5125C116.649 36.5066 117.545 35.9243 119.786 35.9243C121.629 35.9243 121.977 36.0831 121.977 36.9831Z" fill="#1C1C1C"/>
<path d="M151.997 34.8654C151.997 35.7125 152.368 35.9243 153.85 35.9243H155.703V39.895C155.703 43.4951 155.809 43.8657 156.762 43.8657C157.715 43.8657 157.821 43.4951 157.821 39.895V35.9243H159.939C161.686 35.9243 162.056 35.7654 162.056 34.8654C162.056 33.8595 161.686 33.8065 157.027 33.8065C152.368 33.8065 151.997 33.8595 151.997 34.8654Z" fill="#1C1C1C"/>
<path d="M165.233 34.0712C165.233 34.2301 166.05 35.7125 167.071 37.3537C168.756 40.0538 168.858 40.4244 168.245 41.6951C167.888 42.4363 167.48 43.2304 167.378 43.4422C167.275 43.7069 167.735 43.8657 168.45 43.8657C169.471 43.8657 170.134 43.1245 171.921 40.0009C173.095 37.9361 174.423 35.6595 174.831 34.9713C175.546 33.8595 175.495 33.8065 174.219 33.8065C173.198 33.8065 172.585 34.283 171.819 35.6595C171.207 36.6655 170.543 37.5125 170.339 37.5125C170.134 37.5125 169.471 36.6655 168.858 35.6595C168.092 34.336 167.48 33.8065 166.51 33.8065C165.795 33.8065 165.233 33.9124 165.233 34.0712Z" fill="#1C1C1C"/>
<path d="M179.628 37.6658C178.503 40.1357 177.583 41.525 177.071 41.525C176.406 41.525 176.253 41.9881 176.406 43.6862C176.56 46.1047 177.941 46.8766 178.247 44.7154C178.401 43.6348 178.657 43.5833 182.186 43.5833C185.715 43.5833 185.97 43.6348 186.124 44.7154C186.431 46.8766 187.812 46.1047 187.965 43.6862C188.067 41.9881 187.965 41.525 187.3 41.525C186.789 41.525 185.868 40.0842 184.743 37.6658C183.669 35.2473 182.697 33.8065 182.186 33.8065C181.674 33.8065 180.754 35.2473 179.628 37.6658ZM183.209 39.2609C183.618 40.2901 183.976 41.2163 183.976 41.3192C183.976 41.4221 183.157 41.525 182.186 41.525C181.214 41.525 180.396 41.4221 180.396 41.3192C180.396 40.8561 181.981 37.4085 182.186 37.4085C182.339 37.4085 182.799 38.2318 183.209 39.2609Z" fill="#1C1C1C"/>
<path d="M191.854 38.47C192.053 44.205 192.6 44.5068 195.733 40.6332L197.971 37.8663L198.219 40.5326C198.418 42.7964 198.617 43.1485 199.611 43.2994C200.656 43.4504 200.705 43.3497 200.705 38.6712C200.705 32.7853 200.158 32.4835 196.628 36.4577L194.291 39.124L194.241 36.4577C194.241 33.9927 194.191 33.8418 192.998 33.8418H191.705L191.854 38.47Z" fill="#1C1C1C"/>
<path d="M206.255 34.6536C205.099 35.8713 205.25 38.3596 206.506 39.3126L207.562 40.1068L206.506 41.6421C205.2 43.601 205.2 43.8657 206.406 43.8657C206.959 43.8657 208.014 43.0186 208.768 42.0127C209.723 40.6362 210.476 40.1597 211.532 40.1597C212.838 40.1597 212.989 40.3185 212.989 42.0127C212.989 43.4951 213.19 43.8657 213.994 43.8657C214.949 43.8657 214.999 43.4951 214.999 38.8361V33.8065H211.029C208.064 33.8065 206.808 34.0183 206.255 34.6536ZM212.889 36.8243C212.788 37.5125 212.135 37.8302 210.527 37.9361C209.321 38.042 208.114 37.8832 207.863 37.6184C206.908 36.6125 208.014 35.9243 210.527 35.9243C212.688 35.9243 213.04 36.0831 212.889 36.8243Z" fill="#1C1C1C"/>
<path d="M0.109224 2.94474L0.218448 5.0564L9.42967 5.16562L18.6045 5.23844V9.71662C18.6045 14.7409 18.0948 16.3793 16.0923 18.0905C13.9443 19.8745 9.79375 19.9109 7.46364 18.1633C6.04373 17.071 4.80585 14.7409 4.76945 13.139C4.76945 12.1924 4.73304 12.156 2.58497 12.156H0.400488V13.5395C0.400488 16.088 1.45632 18.3817 3.67721 20.6026C6.00732 22.9327 8.1918 23.8065 11.687 23.8065C15.1821 23.8065 17.3666 22.9327 19.6967 20.6026C22.6458 17.5808 22.9734 16.3429 22.9734 7.75059V0.869482H11.5049H0L0.109224 2.94474Z" fill="#1C1C1C"/>
<path d="M31.6797 11.9032V23.2261L33.9734 23.1169L36.2307 23.0076V11.9032V0.798748L33.9734 0.689526L31.6797 0.580301V11.9032Z" fill="#1C1C1C"/>
<path d="M51.5618 3.7842C50.9429 5.56819 49.2317 10.5561 47.7026 14.9251C46.1734 19.294 44.9355 22.9348 44.9355 23.044C44.9355 23.1169 45.9914 23.1897 47.2657 23.1897H49.6322L51.9259 16.2721C53.1638 12.4493 54.2924 9.35463 54.438 9.35463C54.5473 9.35463 55.7123 12.4129 57.023 16.1629L59.4259 23.0076L61.2099 23.1169L62.9939 23.2261L65.1056 17.2916C67.7634 9.75511 68.091 9.02695 68.3823 9.71871C68.4915 10.01 69.5474 13.1411 70.7124 16.6362L72.8605 23.0076L75.1542 23.1169L77.4115 23.2261L77.193 22.2795C76.9382 21.2965 71.1129 4.25751 70.2755 2.07303C69.8022 0.90797 69.6202 0.798746 68.1274 0.689522C66.6347 0.580297 66.4891 0.653114 66.125 1.59972C65.943 2.14584 64.8507 5.24052 63.6857 8.44443C62.557 11.6483 61.5012 14.4153 61.3191 14.561C61.0643 14.8522 60.2269 12.777 57.4599 4.73081L56.04 0.616707H54.3652H52.6905L51.5618 3.7842Z" fill="#1C1C1C"/>
<path fill-rule="evenodd" clip-rule="evenodd" d="M227.952 10.0106C225.04 7.098 225.731 2.36496 229.299 0.617373C232.977 -1.20303 237.418 1.1999 237.855 5.24119C238.474 10.5203 231.739 13.7607 227.952 10.0106ZM234.433 6.11498C235.343 5.64168 235.27 3.42079 234.36 2.91108C233.96 2.72904 232.649 2.547 231.447 2.547H229.226V5.82372C229.226 8.84558 229.263 9.10044 229.955 9.10044C230.537 9.10044 230.683 8.84558 230.683 7.82616C230.683 6.73392 230.792 6.55188 231.557 6.55188C232.176 6.55188 232.649 6.91596 233.195 7.82616C233.668 8.62713 234.214 9.10044 234.688 9.10044H235.489L234.651 7.78975C233.923 6.58829 233.887 6.44265 234.433 6.11498ZM232.248 5.0227C231.011 5.13192 230.683 5.0227 230.683 4.54939C230.683 4.07609 231.011 3.96687 232.248 4.07609C233.086 4.14891 233.778 4.33095 233.778 4.54939C233.778 4.73143 233.086 4.94988 232.248 5.0227Z" fill="#1C1C1C"/>
<path d="M139.446 0.212709C135.368 0.94087 131.691 4.21759 130.562 8.14965C129.761 10.8438 130.016 14.8123 131.108 17.0696C132.128 19.1449 134.276 21.4022 136.315 22.4944C137.662 23.2226 138.426 23.3318 141.703 23.3318C144.98 23.3318 145.744 23.2226 147.055 22.4944C149.349 21.2929 150.914 19.8002 152.116 17.6157C153.099 15.8317 153.172 15.4313 153.172 11.8633C153.172 8.29529 153.099 7.8948 152.079 6.0744C149.604 1.5598 144.688 -0.697491 139.446 0.212709ZM143.924 4.65449C147.164 5.74673 148.766 8.11325 148.803 11.8633C148.803 16.3415 145.999 19.2905 141.703 19.2541C139.409 19.2177 137.989 18.6352 136.533 17.0696C135.222 15.6861 134.713 14.2662 134.713 11.8633C134.713 8.47732 136.096 6.25644 138.972 4.90934C140.647 4.14477 142.176 4.03555 143.924 4.65449Z" fill="#1C1C1C"/>
<path d="M171.251 0.212709C168.885 0.613197 166.009 2.28797 164.516 4.07196C160.73 8.73218 161.057 16.0866 165.244 20.2735C167.829 22.8585 169.14 23.3318 173.509 23.3318C176.785 23.3318 177.55 23.2226 178.861 22.4944C181.154 21.2929 182.72 19.7638 183.885 17.6157C184.795 15.9774 184.977 15.1764 185.086 12.3002C185.232 9.09626 185.196 8.805 184.103 6.58411C181.701 1.70544 176.713 -0.770306 171.251 0.212709ZM175.839 4.65449C181.628 6.40207 182.465 15.3948 177.113 18.3803C175.256 19.4361 172.052 19.5454 170.305 18.6352C164.953 15.8681 165.244 7.42149 170.778 4.90934C172.489 4.10837 173.8 4.07196 175.839 4.65449Z" fill="#1C1C1C"/>
<path d="M91.9686 9.16908C93.6069 13.8293 95.3545 18.9264 95.8642 20.492L96.8473 23.3318L98.4856 23.2226L100.124 23.1133L102.673 15.941C104.056 11.9725 105.294 8.87781 105.44 9.02345C105.585 9.16908 106.823 12.4458 108.17 16.305L110.682 23.3318L112.321 23.2226L113.959 23.1133L117.673 12.373C119.711 6.47488 121.386 1.41417 121.386 1.15932C121.423 0.795238 120.84 0.722422 119.165 0.795238L116.944 0.904461L114.724 7.53072C113.486 11.1715 112.393 14.2298 112.284 14.3754C112.139 14.4846 111.665 13.5016 111.228 12.1181C110.755 10.771 109.663 7.63994 108.753 5.1642L107.151 0.686014L105.33 0.795238L103.51 0.904461L101.107 7.71276C99.7963 11.4992 98.6312 14.4482 98.522 14.339C98.4128 14.2298 97.3206 11.1715 96.0827 7.53072L93.8618 0.904461L91.4589 0.795238L89.0195 0.686014L91.9686 9.16908Z" fill="#1C1C1C"/>
<path d="M193.635 12.0089V23.3318H199.606C204.521 23.3318 205.977 23.2226 207.907 22.6036C210.856 21.6934 212.931 19.9458 214.278 17.2152C215.152 15.4313 215.298 14.7031 215.298 12.0453C215.298 9.38752 215.152 8.65936 214.278 6.87537C213.186 4.65449 211.584 3.05253 209.181 1.77825C207.761 1.01369 207.106 0.94087 200.662 0.831646L193.635 0.686014V12.0089ZM207.288 5.71032C209.982 6.9846 211.475 10.4434 210.747 13.7201C209.836 17.6885 207.761 18.9264 202.118 18.9628H198.368V11.7905V4.65449L202.191 4.87293C204.63 5.01856 206.487 5.30983 207.288 5.71032Z" fill="#1C1C1C"/>
</svg>
