<svg width="30" height="30" viewBox="0 0 30 30" fill="none" xmlns="http://www.w3.org/2000/svg">
<path d="M25.0435 0H4.95652C2.21739 0 0 2.21739 0 4.95652V25.0435C0 27.7826 2.21739 30 4.95652 30H25.0435C27.7826 30 30 27.7826 30 25.0435V4.95652C30 2.21739 27.7826 0 25.0435 0ZM9.52174 25.0435C9.78261 23.8696 11.3478 17.2174 11.3478 17.2174C11.3478 17.2174 10.8261 16.3043 10.8261 15C10.8261 12.913 12 11.2174 13.5652 11.2174C13.9565 11.2174 14.3478 11.3478 14.6087 11.4783C15.1304 11.8696 15.3913 12.5217 15.3913 13.3043C15.3913 14.6087 14.6087 16.5652 14.087 18.3913C13.6957 19.9565 14.8696 21.1304 16.3043 21.1304C19.0435 21.1304 20.8696 17.6087 20.8696 13.4348C20.8696 10.3043 18.7826 7.95652 14.8696 7.95652C10.5652 7.95652 7.82609 11.2174 7.82609 14.8696C7.82609 16.1739 8.21739 16.9565 8.73913 17.7391C9 18 9 18.1304 9 18.5217C8.86957 18.7826 8.73913 19.4348 8.73913 19.6957C8.6087 20.087 8.34783 20.2174 8.08696 20.087C6.13043 19.3043 5.08696 17.087 5.08696 14.6087C5.08696 10.5652 8.47826 5.6087 15.3913 5.6087C20.8696 5.6087 24.5217 9.52174 24.5217 13.8261C24.5217 19.4348 21.3913 23.6087 16.8261 23.6087C15.2609 23.6087 13.8261 22.8261 13.3043 21.7826C13.3043 21.7826 12.5217 25.0435 12.2609 25.6957C12 26.7391 11.4783 27.7826 10.9565 28.5652C10.3043 28.4348 9.65217 28.1739 9.13044 27.913C9.26087 27.2609 9.26087 26.087 9.52174 25.0435Z" fill="#7AAFB0"/>
</svg>
