<svg width="50" height="30" viewBox="0 0 50 30" fill="none" xmlns="http://www.w3.org/2000/svg">
<path d="M1.68052 0C3.42085 0 6.07278 0 7.5645 0C8.31035 0 8.89046 0.497238 9.13908 1.16022C9.88494 3.31492 11.5424 8.03867 13.4485 11.2707C16.0175 15.4972 17.675 17.0718 18.7523 16.9061C19.8297 16.6575 19.4982 13.8398 19.4982 11.6022C19.4982 9.36464 19.7468 5.55249 18.6695 3.81216L17.012 1.40884C16.5976 0.82873 17.012 0.0828732 17.675 0.0828732H27.1225C28.0341 0.0828732 28.78 0.82873 28.78 1.74033V13.7569C28.78 13.7569 29.1943 15.9116 31.5148 13.674C33.8352 11.4365 36.3214 7.29282 38.3932 3.0663L39.222 1.07735C39.4706 0.497238 40.0507 0.0828732 40.7137 0.0828732H46.8463C48.0065 0.0828732 48.8352 1.24309 48.4209 2.32044L47.7579 4.06077C47.7579 4.06077 45.5203 8.53591 43.1999 11.6851C40.8794 14.9171 40.3822 15.663 40.7137 16.4917C41.0452 17.3204 47.012 22.8729 48.5037 25.5249C48.9181 26.2707 49.2496 26.9337 49.5811 27.5138C50.1612 28.5912 49.3325 30 48.0894 30H41.128C40.5479 30 39.9678 29.6685 39.7192 29.1713L39.0562 28.0939C39.0562 28.0939 34.8297 23.1215 32.2606 21.547C29.6087 20.0553 29.6916 22.2099 29.6916 22.2099V26.6022C29.6916 28.4254 28.1999 29.9171 26.3767 29.9171H24.7192C24.7192 29.9171 15.6032 29.9171 8.31035 19.0608C2.59212 10.6077 0.686041 5.13812 0.0230576 1.98895C-0.142688 0.994475 0.603168 0 1.68052 0Z" fill="#7AAFB0"/>
</svg>
